<svg xmlns="http://www.w3.org/2000/svg" width="720" height="503.999"><radialGradient id="a" cx="461.995" cy="394.993" r="406.581" gradientUnits="userSpaceOnUse"><stop offset=".138" stop-color="#692339"/><stop offset=".232" stop-color="#642239"/><stop offset=".338" stop-color="#572039"/><stop offset=".434" stop-color="#441d3a"/><stop offset=".709" stop-color="#271936"/><stop offset="1" stop-color="#17122a"/></radialGradient><path fill="url(#a)" d="M0-1h720v503.999H0z"/><path fill="#090916" d="M19.059 433.439c.017-.159-.027-.734-.125-1.663l3.468 6.35-4.988-22.276-.686-1.352c-.131-.978-.267-1.981-.406-3.007l1.821 3.559-4.027-27.096-1.606-4.122a6419.41 6419.41 0 00-.597-4.276l3.331 7.435-8.848-49.097v2.539l-.611-4.295-.156 1.457c-.066.616-.159 1.424-.274 2.396v-2.097L-.5 368.862v10.376l1.049-2.108-.515 3.88-.534 1.197v55.562l7.485-.916 12.077-1.479-.705-1.363c.43-.16.678-.35.702-.572z"/><path opacity=".4" fill="#0C0C1C" d="M306.544 469.016c.013-.103-.02-.474-.092-1.072l2.548 4.095-3.665-14.369-.504-.873-.298-1.939 1.338 2.296-2.959-17.479-1.18-2.659-.438-2.759 2.447 4.796-6.501-31.672v1.638l-.449-2.771-.114.94c-.049.396-.117.918-.202 1.545v-1.353l-6.629 30.774 3.097-5.463c-.125.83-.251 1.664-.379 2.502l-1.125 2.214-3.888 14.052 2.984-2.924-.392 2.57-1.069 1.232-4.964 17.656 3.934-5.19-.749 4.87.22.01-1.969 2.838 12.125-1.302 8.875-.954-.519-.88c.318-.104.499-.227.517-.369zM272.197 483.207c.018-.159-.027-.734-.125-1.663l3.486 6.35-5.014-22.276-.689-1.352-.408-3.007 1.831 3.559-4.048-27.096-1.615-4.122-.6-4.276 3.349 7.435-8.895-49.097v2.539l-.614-4.295-.156 1.457c-.066.616-.159 1.424-.276 2.396v-2.097l-9.07 47.705 4.237-8.469-.518 3.88-1.539 3.432-5.32 21.781 4.083-4.532-.537 3.984-1.463 1.912-6.792 27.367 5.383-8.045-1.025 7.55.302.015-2.695 4.399 16.591-2.02 12.142-1.479-.709-1.363c.43-.161.679-.35.704-.572zM554.676 480.449c.013-.128-.018-.591-.086-1.338l2.388 5.109-3.435-17.924-.472-1.088-.278-2.419 1.253 2.863-2.772-21.802-1.105-3.316-.41-3.44 2.293 5.981-6.091-39.503v2.043l-.421-3.455-.107 1.172a153 153 0 01-.188 1.928v-1.688l-6.211 38.384 2.9-6.814c-.117 1.036-.234 2.077-.354 3.122l-1.054 2.761-3.642 17.525 2.796-3.646-.368 3.206-1.002 1.538-4.651 22.02 3.686-6.473-.701 6.074.207.012-1.846 3.54 11.36-1.625 8.314-1.189-.485-1.097c.295-.13.465-.282.482-.461z"/><path opacity=".4" fill="#0C0C1C" d="M535.538 480.158c.011-.092-.017-.421-.079-.951l2.183 3.631-3.141-12.74-.431-.773-.254-1.719 1.146 2.034-2.536-15.496-1.01-2.358-.375-2.445 2.096 4.252-5.568-28.08v1.452c-.242-1.561-.384-2.456-.384-2.456l-.099.833c-.041.353-.099.814-.172 1.37v-1.199l-5.678 27.284 2.652-4.844-.324 2.22-.964 1.963-3.33 12.456 2.557-2.592c-.113.771-.228 1.532-.336 2.279l-.916 1.094-4.253 15.652 3.369-4.602c-.398 2.694-.641 4.318-.641 4.318s.066.004.189.008l-1.688 2.517 10.387-1.155 7.602-.846-.445-.779c.271-.092.426-.202.443-.328z"/><path opacity=".4" fill="#0C0C1C" d="M516.964 487.381c.008-.092-.013-.421-.058-.951l1.612 3.631-2.321-12.74-.318-.773c-.06-.558-.123-1.133-.188-1.719l.847 2.034-1.874-15.496-.747-2.358-.277-2.445 1.55 4.252-4.116-28.08v1.452l-.283-2.456-.073.833c-.03.353-.072.814-.128 1.37v-1.199l-4.196 27.284 1.961-4.844-.24 2.22-.712 1.963-2.462 12.456 1.891-2.592-.249 2.279-.677 1.094-3.144 15.652 2.49-4.602-.474 4.318s.049.004.141.008l-1.248 2.517 7.678-1.155 5.618-.846-.329-.779c.199-.093.313-.202.326-.328zM401.279 475.902c.008-.092-.013-.421-.058-.951l1.612 3.631-2.321-12.74-.318-.773c-.06-.558-.123-1.133-.188-1.719l.847 2.034-1.874-15.496-.747-2.358-.277-2.445 1.55 4.252-4.116-28.08v1.452l-.283-2.456-.073.833c-.03.353-.072.814-.128 1.37v-1.199l-4.196 27.284 1.961-4.844-.24 2.22-.712 1.963-2.462 12.456 1.891-2.592-.249 2.279-.677 1.094-3.144 15.652 2.49-4.602-.474 4.318s.049.004.141.008l-1.248 2.517 7.678-1.155 5.618-.846-.329-.779c.199-.092.314-.202.326-.328zM491.077 485.92c.007-.07-.012-.321-.053-.727l1.469 2.775-2.114-9.738-.289-.592-.171-1.313.771 1.555-1.707-11.845-.68-1.803-.253-1.869 1.411 3.25-3.748-21.464v1.109c-.163-1.192-.259-1.877-.259-1.877l-.066.637c-.027.27-.066.623-.115 1.047v-.916l-3.822 20.855 1.785-3.702-.218 1.696-.649 1.501-2.241 9.521 1.722-1.981-.227 1.743-.617.836-2.862 11.964 2.269-3.518-.433 3.302.129.006-1.137 1.923 6.992-.883 5.116-.646-.3-.596c.182-.07.285-.153.297-.25z"/><path opacity=".4" fill="#0C0C1C" d="M415.577 478.819c.007-.07-.012-.321-.053-.727l1.469 2.775-2.114-9.738-.289-.592-.171-1.313.771 1.555-1.707-11.845-.68-1.803-.253-1.869 1.411 3.25-3.748-21.464v1.109c-.163-1.192-.259-1.877-.259-1.877l-.066.637c-.027.27-.066.623-.115 1.047v-.916l-3.822 20.855 1.785-3.702-.218 1.696-.649 1.501-2.241 9.521 1.722-1.981-.227 1.743-.617.836-2.862 11.964 2.269-3.518-.433 3.302.129.006-1.137 1.923 6.992-.883 5.116-.646-.3-.596c.182-.07.285-.153.297-.25zM475.565 482.828a4.072 4.072 0 00-.042-.519l1.173 1.98-1.688-6.948-.23-.423a225.51 225.51 0 01-.137-.937l.615 1.109-1.363-8.451-.543-1.286-.201-1.334 1.126 2.319-2.992-15.314v.792l-.207-1.34-.053.454c-.022.192-.054.444-.093.747v-.653l-3.052 14.88 1.426-2.642-.175 1.21-.519 1.071-1.789 6.793 1.375-1.414-.182 1.244-.492.596-2.286 8.536 1.812-2.509-.346 2.355.104.004-.908 1.372 5.584-.63 4.086-.462-.239-.425c.145-.047.228-.106.236-.175zM429.558 478.827a4.072 4.072 0 00-.042-.519l1.173 1.98-1.689-6.947-.23-.423a225.51 225.51 0 01-.137-.937l.615 1.109-1.363-8.451-.543-1.286-.201-1.334 1.126 2.319-2.992-15.314v.792l-.207-1.34-.053.454c-.022.192-.054.444-.093.747v-.653l-3.052 14.88 1.426-2.642-.175 1.21-.519 1.071-1.789 6.793 1.375-1.414-.182 1.244-.492.596-2.286 8.536 1.812-2.509-.346 2.355.104.004-.908 1.372 5.584-.63 4.086-.462-.239-.425c.145-.048.228-.107.237-.176zM282.759 471.644c.007-.092-.012-.421-.053-.951l1.469 3.631-2.114-12.74-.289-.773-.171-1.719.771 2.034-1.707-15.496-.68-2.358-.253-2.445 1.411 4.252-3.748-28.08v1.452c-.163-1.561-.259-2.456-.259-2.456l-.066.833c-.027.353-.066.814-.115 1.37v-1.199l-3.822 27.284 1.785-4.844-.218 2.22-.649 1.963-2.241 12.456 1.722-2.592-.227 2.279-.617 1.094-2.862 15.652 2.269-4.602-.433 4.318s.045.004.129.008l-1.137 2.517 6.992-1.155 5.116-.846-.3-.779c.182-.093.286-.202.297-.328zM503.653 481.031c.007-.073-.013-.336-.054-.759l1.494 2.896-2.151-10.158-.294-.617-.174-1.37.784 1.622-1.737-12.355-.691-1.881c-.087-.65-.171-1.302-.257-1.949l1.435 3.39-3.812-22.389v1.157c-.166-1.244-.264-1.958-.264-1.958l-.067.664c-.027.281-.067.649-.117 1.093v-.956l-3.89 21.754 1.817-3.861-.222 1.77-.661 1.565-2.28 9.932 1.752-2.067c-.079.615-.156 1.222-.23 1.817l-.629.872-2.912 12.48 2.309-3.669c-.273 2.148-.44 3.443-.44 3.443l.131.006-1.156 2.007 7.115-.921 5.205-.675-.306-.621c.185-.074.29-.161.302-.262zM599.064 473.248c.013-.128-.018-.591-.086-1.338l2.388 5.109-3.435-17.924-.472-1.088-.278-2.419 1.253 2.863-2.772-21.802-1.105-3.316-.41-3.44 2.293 5.981-6.091-39.503v2.043l-.421-3.455-.107 1.172a153 153 0 01-.188 1.928v-1.688l-6.211 38.384 2.9-6.814c-.117 1.036-.234 2.077-.354 3.122l-1.054 2.761-3.642 17.525 2.796-3.646-.368 3.206-1.002 1.538-4.651 22.02 3.686-6.473-.701 6.074.207.012-1.846 3.54 11.36-1.625 8.314-1.189-.485-1.097c.296-.13.466-.282.482-.461z"/><path opacity=".6" fill="#0C0C1C" d="M225.72 464.434c.017-.159-.027-.734-.123-1.663l3.406 6.35-4.898-22.276-.673-1.352-.398-3.007 1.789 3.559-3.955-27.096-1.577-4.122-.586-4.276 3.271 7.435-8.689-49.097v2.539l-.6-4.295-.153 1.457a194.86 194.86 0 01-.27 2.396v-2.097l-8.86 47.705 4.139-8.469-.506 3.88-1.503 3.432-5.197 21.781 3.989-4.532-.525 3.984-1.429 1.912-6.636 27.367 5.258-8.045-1.001 7.55.295.015-2.633 4.399 16.208-2.02 11.861-1.479-.692-1.363c.421-.161.664-.351.688-.572zM639.434 454.65c.017-.159-.026-.734-.122-1.663l3.405 6.35-4.898-22.276-.673-1.352-.398-3.007 1.789 3.559-3.955-27.096-1.578-4.122-.586-4.276 3.271 7.435L627 359.105v2.539l-.6-4.295-.153 1.457c-.064.616-.155 1.424-.27 2.396v-2.097l-8.86 47.705 4.139-8.469-.506 3.88-1.503 3.432-5.196 21.781 3.988-4.532-.525 3.984-1.428 1.912-6.637 27.367 5.259-8.045-1.001 7.55.295.015-2.633 4.399 16.208-2.02 11.861-1.479-.692-1.363c.421-.16.663-.35.688-.572z"/><path opacity=".8" fill="#0C0C1C" d="M707.495 422.868c.012-.159-.021-.734-.093-1.663l2.586 6.35-3.721-22.276-.511-1.352-.303-3.007 1.359 3.559-3.004-27.096-1.199-4.122-.445-4.276 2.485 7.435-6.6-49.097v2.539l-.456-4.295-.116 1.457c-.049.616-.118 1.424-.204 2.396v-2.097l-6.729 47.705 3.144-8.469-.385 3.88-1.142 3.432-3.946 21.781 3.029-4.532-.399 3.984-1.084 1.912-5.041 27.367 3.994-8.045-.761 7.55.225.015-2 4.399 12.311-2.02 9.009-1.479-.526-1.363c.32-.161.504-.35.523-.572zM138.793 449.252c.017-.159-.027-.734-.125-1.663l3.468 6.35-4.988-22.276-.686-1.352c-.131-.978-.267-1.981-.406-3.007l1.821 3.559-4.027-27.096-1.606-4.122a6419.41 6419.41 0 00-.597-4.276l3.331 7.435-8.848-49.097v2.539l-.611-4.295-.156 1.457c-.066.616-.159 1.424-.274 2.396v-2.097l-9.021 47.705 4.214-8.469-.515 3.88-1.531 3.432-5.292 21.781 4.061-4.532-.534 3.984-1.455 1.912-6.756 27.367 5.354-8.045-1.02 7.55.301.015-2.681 4.399 16.504-2.02 12.077-1.479-.705-1.363c.431-.161.679-.35.703-.572z"/><path fill="#090916" d="M97.351 441.416c.017-.159-.027-.734-.125-1.663l3.468 6.35-4.988-22.276-.686-1.352c-.131-.978-.267-1.981-.406-3.007l1.821 3.559-4.027-27.096-1.606-4.122a6419.41 6419.41 0 00-.597-4.276l3.331 7.435-8.848-49.097v2.539l-.611-4.295-.156 1.457c-.066.616-.159 1.424-.274 2.396v-2.097l-9.021 47.705 4.214-8.469-.515 3.88-1.531 3.432-5.292 21.781 4.061-4.532-.534 3.984-1.455 1.912-6.756 27.367 5.354-8.045-1.02 7.55.301.015-2.681 4.399 16.504-2.02 12.077-1.479-.705-1.363c.43-.161.678-.35.703-.572z"/><g opacity=".8"><path fill="#0A0A1C" d="M145.287 49.158s-2.965-8.432-4.206-13.751c-1.45-6.225-1.707-35.579-1.707-35.579h-2.069s-.174 31.684.812 39.74c.986 8.056 7.17 28.669 7.17 28.669V49.158z"/><path fill="#0C0C1C" d="M145.287-1h9.538v452.003h-9.538z"/></g><g opacity=".5" fill="#04040A"><path d="M648.234 50.159s4.073-8.432 5.777-13.751c1.992-6.225 2.345-35.579 2.345-35.579h2.843s.239 31.684-1.116 39.74c-1.354 8.056-9.849 28.669-9.849 28.669V50.159z"/><path d="M635.133 0h13.102v452.003h-13.102z"/></g><g opacity=".9" fill="#04040A"><path d="M711.612 49.159s2.843-8.432 4.032-13.751c1.391-6.225 1.637-35.579 1.637-35.579h1.984s.167 31.684-.779 39.74c-.945 8.056-6.874 28.669-6.874 28.669V49.159z"/><path d="M702.468-1h9.145v452.003h-9.145z"/></g><g opacity=".6"><path fill="#0A0A1C" d="M243.31 51.54s2.965-8.694 4.206-14.18c1.45-6.419 1.707-36.688 1.707-36.688h2.069s.174 32.672-.812 40.979c-.986 8.307-7.17 29.563-7.17 29.563V51.54z"/><path fill="#0C0C1C" d="M233.772-.183h9.538v466.1h-9.538z"/></g><g fill="#04040A"><path d="M70.471 49.159s2.965-8.432 4.206-13.751c1.45-6.225 1.707-35.579 1.707-35.579h2.069s.174 31.684-.812 39.74c-.986 8.056-7.17 28.669-7.17 28.669V49.159z"/><path opacity=".7" d="M60.933-1h9.538v452.003h-9.538z"/></g><path fill="#2A122D" d="M266.708 467.453c3.845.773 316.501 17.547 316.501 17.547v18.999H391.667l-124.959-36.546"/><path fill="#29132D" d="M720 400.541c-9.596 2.407-79.604 32.604-112.603 51.682-32.998 19.078-160.979 51.683-160.979 51.683H720V400.541z"/><path fill="#161630" d="M0 436.285l55.511-11.286 393 78.999L0 503.999z"/><path fill="#D77100" d="M443.478 478.625s-7.473.785-5.112-9.243c2.359-10.029 11.405-5.703 9.438-15.535s6.292 1.354 9.045 10.706 6.686 16.038-13.371 14.072z"/><path fill="#FFF" d="M272 20.208c1.587 0 1.587-2.461 0-2.461s-1.587 2.461 0 2.461zM559 87.378c1.19 0 1.19-1.846 0-1.846s-1.19 1.846 0 1.846zM618.448 31.762c1.587 0 1.587-2.461 0-2.461s-1.587 2.461 0 2.461zM655.781 102.677c1.19 0 1.19-1.846 0-1.846s-1.19 1.846 0 1.846zM697.353 87.686c1.587 0 1.587-2.461 0-2.461s-1.587 2.461 0 2.461zM170.031 132.416c1.587 0 1.587-2.461 0-2.461s-1.587 2.461 0 2.461zM131.381 169.756c1.19 0 1.19-1.846 0-1.846s-1.191 1.846 0 1.846zM323 47.699c1.19 0 1.19-1.846 0-1.846s-1.19 1.846 0 1.846zM518 25.951c1.19 0 1.19-1.846 0-1.846s-1.19 1.846 0 1.846zM409 81.186c1.19 0 1.19-1.846 0-1.846s-1.19 1.846 0 1.846zM344 123.839c1.19 0 1.19-1.846 0-1.846s-1.19 1.846 0 1.846zM409 30.035c1.19 0 1.19-1.846 0-1.846s-1.19 1.846 0 1.846zM511 115.923c1.19 0 1.19-1.846 0-1.846s-1.19 1.846 0 1.846zM550 42.646c1.19 0 1.19-1.846 0-1.846s-1.19 1.846 0 1.846zM618.448 190.256c1.19 0 1.19-1.846 0-1.846s-1.19 1.846 0 1.846zM283 124.923c1.19 0 1.19-1.846 0-1.846s-1.19 1.846 0 1.846zM214.438 212.923c1.19 0 1.19-1.846 0-1.846s-1.191 1.846 0 1.846zM80.24 179.974c.793 0 .793-1.23 0-1.23s-.793 1.23 0 1.23zM42.651 152.615c.793 0 .793-1.23 0-1.23s-.794 1.23 0 1.23zM272 109.093c.793 0 .793-1.23 0-1.23s-.793 1.23 0 1.23zM344 61.928c.793 0 .793-1.23 0-1.23s-.793 1.23 0 1.23zM487 65.078c.794 0 .794-1.23 0-1.23s-.794 1.23 0 1.23zM518 36.559c.794 0 .794-1.23 0-1.23s-.794 1.23 0 1.23zM537 91.905c.794 0 .794-1.23 0-1.23s-.794 1.23 0 1.23zM550 20.404c.794 0 .794-1.23 0-1.23s-.794 1.23 0 1.23zM376 19.284c.794 0 .794-1.23 0-1.23s-.794 1.23 0 1.23zM618.448 148.615c.794 0 .794-1.23 0-1.23s-.794 1.23 0 1.23zM659.933 197.615c.794 0 .794-1.23 0-1.23s-.794 1.23 0 1.23zM659.933 145.115c.794 0 .794-1.23 0-1.23s-.794 1.23 0 1.23zM659.933 232.865c.794 0 .794-1.23 0-1.23s-.794 1.23 0 1.23zM625.903 124.615c.794 0 .794-1.23 0-1.23s-.794 1.23 0 1.23zM537 65.078c.794 0 .794-1.23 0-1.23s-.794 1.23 0 1.23zM398 67.194c.794 0 .794-1.23 0-1.23s-.794 1.23 0 1.23zM323 109.093c.793 0 .793-1.23 0-1.23s-.793 1.23 0 1.23zM265 169.449c.793 0 .793-1.23 0-1.23s-.793 1.23 0 1.23zM305 152.615c.793 0 .793-1.23 0-1.23s-.793 1.23 0 1.23zM432 37.862c.794 0 .794-1.23 0-1.23s-.794 1.23 0 1.23zM464 94.598c.794 0 .794-1.23 0-1.23s-.794 1.23 0 1.23zM355 131.801c.793 0 .793-1.23 0-1.23s-.793 1.23 0 1.23zM387.076 50.376c.794 0 .794-1.23 0-1.23s-.794 1.23 0 1.23zM468 53.303c.794 0 .794-1.23 0-1.23s-.794 1.23 0 1.23zM487 20.404c.794 0 .794-1.23 0-1.23s-.794 1.23 0 1.23zM349 25.643c.793 0 .793-1.23 0-1.23s-.793 1.23 0 1.23zM344 135.939c.793 0 .793-1.23 0-1.23s-.793 1.23 0 1.23zM441.511 110.04c.794 0 .794-1.23 0-1.23s-.794 1.23 0 1.23zM423.511 153.562c.794 0 .794-1.23 0-1.23s-.794 1.23 0 1.23zM473.511 132.747c.794 0 .794-1.23 0-1.23s-.794 1.23 0 1.23zM462.511 136.886c.794 0 .794-1.23 0-1.23s-.794 1.23 0 1.23zM518 80.608c.794 0 .794-1.23 0-1.23s-.794 1.23 0 1.23zM500 124.13c.794 0 .794-1.23 0-1.23s-.794 1.23 0 1.23zM550 103.315c.794 0 .794-1.23 0-1.23s-.794 1.23 0 1.23zM539 107.454c.794 0 .794-1.23 0-1.23s-.794 1.23 0 1.23zM441.511 54.24c.794 0 .794-1.23 0-1.23s-.794 1.23 0 1.23zM277 189.949c.793 0 .793-1.23 0-1.23s-.793 1.23 0 1.23zM502 171.865c.794 0 .794-1.23 0-1.23s-.794 1.23 0 1.23zM578.191 124.615c.793 0 .793-1.23 0-1.23s-.793 1.23 0 1.23zM464 19.284c.794 0 .794-1.23 0-1.23s-.794 1.23 0 1.23zM409 15.319c.794 0 .794-1.23 0-1.23s-.794 1.23 0 1.23zM319 15.319c.793 0 .793-1.23 0-1.23s-.793 1.23 0 1.23zM305 75.023c.793 0 .793-1.23 0-1.23s-.793 1.23 0 1.23zM131.381 123.531c.793 0 .793-1.23 0-1.23s-.794 1.23 0 1.23zM80.24 152.615c.793 0 .793-1.23 0-1.23s-.793 1.23 0 1.23zM664.968 184.615c.794 0 .794-1.23 0-1.23s-.794 1.23 0 1.23zM697.353 145.115c.794 0 .794-1.23 0-1.23s-.794 1.23 0 1.23zM697.353 201.615c.794 0 .794-1.23 0-1.23s-.794 1.23 0 1.23zM618.448 68.853c.794 0 .794-1.23 0-1.23s-.794 1.23 0 1.23zM542 44.678c.794 0 .794-1.23 0-1.23s-.794 1.23 0 1.23zM360 53.303c.793 0 .793-1.23 0-1.23s-.793 1.23 0 1.23zM265 135.939c.793 0 .793-1.23 0-1.23s-.793 1.23 0 1.23zM214.438 177.721c.793 0 .793-1.23 0-1.23s-.794 1.23 0 1.23zM170.031 208.615c.793 0 .793-1.23 0-1.23s-.794 1.23 0 1.23zM123.606 226.617c.793 0 .793-1.23 0-1.23s-.793 1.23 0 1.23zM73.392 225.616c.793 0 .793-1.23 0-1.23s-.793 1.23 0 1.23zM42.651 184.615c.793 0 .793-1.23 0-1.23s-.794 1.23 0 1.23zM11 218.751c.793 0 .793-1.23 0-1.23s-.793 1.23 0 1.23zM702.468 256.615c.794 0 .794-1.23 0-1.23s-.794 1.23 0 1.23zM719.277 161.615c.793 0 .793-1.23 0-1.23s-.793 1.23 0 1.23zM218.984 135.939c.793 0 .793-1.23 0-1.23s-.793 1.23 0 1.23z" opacity=".5"/><path opacity=".4" fill="#070711" d="M610.813 459.25c0 1 65.557-27.75 65.557-27.75l2.066 13-67.623 24h-10.666l10.666-9.25zM690.37 464.499c1.63 0 28.907-9.999 28.907-9.999l.723-16-33 13.723 3.37 12.276z"/><path fill="#FFF" d="M249.5 81.801c.793 0 .793-1.23 0-1.23s-.793 1.23 0 1.23zM177.015 65.693c1.587 0 1.587-2.461 0-2.461s-1.587 2.461 0 2.461z" opacity=".5"/><path opacity=".5" fill="#070711" d="M198.859 465.703l1.25 17.834-50.644 4.457-137.106 10.274 109.485-37 61.015-2.064z"/><path fill="#FFF" d="M125.199 45.293c1.587 0 1.587-2.461 0-2.461s-1.587 2.461 0 2.461zM73.392 124.923c1.19 0 1.19-1.846 0-1.846s-1.19 1.846 0 1.846zM42.651 75.639c1.587 0 1.587-2.461 0-2.461s-1.587 2.461 0 2.461zM11 17.434c1.587 0 1.587-2.461 0-2.461s-1.587 2.461 0 2.461zM11 109.401c1.19 0 1.19-1.846 0-1.846s-1.19 1.846 0 1.846zM131.381 87.378c1.19 0 1.19-1.846 0-1.846s-1.191 1.846 0 1.846z" opacity=".5"/><path fill="#0B0B19" d="M184 0h16v464.499h-16z"/><g fill="#090916"><path d="M209.402 46.776V0h-2.234v26.698s-.18 11.35-.452 23.358c.796-1.193 1.618-2.359 2.686-3.28z"/><path d="M206.716 50.056c-.281 12.409-.66 25.521-1.038 27.54-.745 3.973-6.207 4.966-6.207 4.966v11.421s1.5-.729 4.965-2.979c4.971-3.228 4.966-6.952 4.966-14.152V46.776c-1.068.921-1.89 2.087-2.686 3.28z"/><path d="M226.833 0s-.235 9.07-.299 12.794c-.124 7.201-2.234 10.924-4.221 15.394-1.755 3.949-10.484 15.593-12.493 18.252.103-.077.19-.168.298-.24-.107.072-.195.163-.298.24l-.418.551v6.634s10.222-13.859 12.848-18.875c2.535-4.842 5.525-15.128 5.525-18.977V0h-.942z"/><path d="M216.05 37.955s-1.557-9.892-1.309-13.616S214.714 0 214.714 0h.668s.816 16.657.668 18.977c-.191 3.003 1.049 14.015 1.794 14.672s1.738.869 1.738.869l-3.532 3.437z"/><path d="M216.276 24.087s1.667-5.648 2.313-7.569c.663-1.971 1.862-6.579 2.235-9.683.244-2.033 0-6.835 0-6.835h.869v8.449c0 .993-2.562 10.304-2.708 11.297-.147.993-2.101 9.661-2.101 9.661l-.608-5.32z"/></g><path fill="#090916" d="M184 47.833s-5.183-8.176-7.35-13.333c-2.535-6.036-2.984-34.499-2.984-34.499h-3.615s-.305 30.722 1.419 38.533C173.194 46.346 184 66.333 184 66.333v-18.5z"/><path fill="#482647" d="M198 168.833l-2.983 10.354-1.149 88.146 3.735 21.167zM197.603 298.834V418.5l-3.735-13V279.667zM199.471 88.833v5.149s9.222-3.577 9.576-9.78.355-29.369.355-29.369-1.236 16-1.236 20.5-1.724 11.667-8.695 13.5zM216.276 44.019s2.443-3.272 4.58-6.874c1.598-2.694 3.161-6.34 3.733-8.045 1.269-3.786 2.607-9.311 2.607-9.311s-3.097 9.003-4.028 11.078c-.378.843-1.996 4.376-4.183 7.696-2.179 3.309-4.449 6.338-4.547 6.521l1.838-1.065zM193.868 171.25l3.735-9.833V76.75z"/><path fill="#0B0B19" d="M674.37 0h16v464.499h-16z"/><path fill="#090916" d="M664.968 46.776V0h2.234v26.698s.18 11.35.451 23.358c-.795-1.193-1.617-2.359-2.685-3.28z"/><path fill="#0B0B19" d="M667.653 50.056c.281 12.409.66 25.521 1.039 27.54.744 3.973 6.207 4.966 6.207 4.966v11.421s-1.5-.729-4.966-2.979c-4.972-3.228-4.966-6.952-4.966-14.152V46.776c1.069.921 1.891 2.087 2.686 3.28z"/><path fill="#0B0B19" d="M647.536 0s.236 9.07.3 12.794c.124 7.201 2.234 10.924 4.221 15.394 1.755 3.949 10.483 15.593 12.493 18.252-.103-.077-.19-.168-.298-.24.107.072.195.163.298.24l.418.551v6.634S654.745 39.766 652.12 34.75c-2.535-4.842-5.525-15.128-5.525-18.977V0h.941z"/><path fill="#0B0B1C" d="M658.32 37.955s1.557-9.892 1.309-13.616c-.247-3.724.027-24.339.027-24.339h-.668s-.815 16.657-.668 18.977c.191 3.003-1.05 14.015-1.794 14.672-.746.657-1.738.869-1.738.869l3.532 3.437z"/><path fill="#0B0B1C" d="M658.095 24.087s-1.667-5.648-2.313-7.569c-.663-1.971-1.862-6.579-2.235-9.683-.244-2.033 0-6.835 0-6.835h-.868v8.449c0 .993 2.562 10.304 2.708 11.297s2.101 9.661 2.101 9.661l.607-5.32z"/><path fill="#090916" d="M690.37 47.833s5.183-8.176 7.35-13.333c2.535-6.036 2.984-34.499 2.984-34.499h3.615s.305 30.722-1.42 38.533c-1.723 7.811-12.529 27.799-12.529 27.799v-18.5z"/><path fill="#482647" d="M676.37 168.833l2.984 10.354 1.149 88.146-3.736 21.167zM676.767 298.834V418.5l3.736-13V279.667zM674.899 88.833v5.149s-9.223-3.577-9.576-9.78c-.354-6.203-.355-29.369-.355-29.369s1.236 16 1.236 20.5 1.724 11.667 8.695 13.5zM658.095 44.019c-.001 0-2.443-3.272-4.58-6.874-1.598-2.694-3.161-6.34-3.732-8.045-1.27-3.786-2.607-9.311-2.607-9.311s3.097 9.003 4.028 11.078c.378.843 1.995 4.376 4.183 7.696 2.18 3.309 4.449 6.338 4.547 6.521l-1.839-1.065zM680.503 171.25l-3.736-9.833V76.75z"/><path fill="#0B0B19" d="M600.147-1h10.666v469.5h-10.666z"/><g fill="#0B0B19"><path d="M584.96 55.879c-2.418-1.753-4.471-3.873-6.754-5.761.086 5.92.618 15.149 2.953 19.632 3.595 6.901 16.85 18.064 18.261 27.439 1.415 9.375 1.786 11.289 1.786 11.289V77.5s-14.691-18.458-16.246-21.621z"/><path d="M584.87 55.689c-1.004-2.554-2.002-17.853-1.973-22.822L581.691-.536l-3.195-.018-.254 45.247s-.083 2.233-.036 5.426c2.283 1.888 4.336 4.007 6.754 5.761-.033-.068-.069-.138-.09-.191z"/><path d="M582.897 32.867s10.004-11.413 11.924-12.741c1.92-1.328 2.41-20.575 2.41-20.575l-2.102-.012s-.271 13.953-1.433 16.69c-1.162 2.737-11.066 9.185-11.066 9.185l.267 7.453zM568.766 39.26c-.487-2.917 1.681-1.725 1.772-18.124.021-3.843-.067-21.736-.067-21.736l-1.938-.011s.05 20.397-.136 24.22c-.155 3.186-.567 8.044-1.475 9.461-.277 2.479.479 4.448 1.844 6.19z"/><path d="M578.176 51s-8.338-7.247-9.271-11.076a9.547 9.547 0 01-.139-.664c-1.364-1.743-2.121-3.711-1.844-6.189-.181.283-.38.442-.603.409-1.336-.199-1.391-34.111-1.391-34.111l-1.721-.01s.181 35.692 1.303 40.095 13.368 21.149 15.24 26.279c1.877 5.13-1.574-14.733-1.574-14.733z"/></g><path fill="#0B0B19" d="M610.813 104.89s8.959-11.448 9.457-18.913c.499-7.466 1.494-85.697 1.494-85.697h4.139s.404 80.969 0 89.181c-.407 8.213-5.686 23.524-12.352 32.104-1.659 2.135-2.611 9.621-2.611 9.621l-.127-26.296z"/><path fill="#0C0C1E" d="M626 23.512s7.709-9.296 8.456-12.362C635.202 8.083 635.7.28 635.7.28h1.244s.747 12.033 0 13.526c-.746 1.494-11.041 16.725-11.041 16.725l.097-7.019z"/><path fill="#482647" d="M601.979 189.333l2.311 10.354.891 88.147L602.286 309zM602.286 321.717v134.546l2.895-14.617V300.168zM605.181 191.75l-2.895-9.833V97.25zM599.438 90.5l-16.454-22.036c.206.362 1.037 3.286 1.037 3.286l15.417 20.312V90.5zM567.626 44.062c.125.188 11.062 15.875 11.062 15.875l-.497 1.375-10.565-17.25z"/><g fill="#04040A"><path d="M35.666 47.635s5.183-8.176 7.35-13.333C45.551 28.266 46-.197 46-.197h3.615s.305 30.722-1.419 38.533c-1.723 7.811-12.529 27.799-12.529 27.799v-18.5z"/><path d="M19-1h16.667v438.272H19z"/></g><g><path fill="#070711" d="M94-.273h18.494v437.545H94z"/><path fill="#070711" d="M131.381 52.735c3.007-1.634 5.56-3.609 8.399-5.369-.107 5.517-.769 14.118-3.673 18.295-4.47 6.432-20.954 16.835-22.709 25.571-1.76 8.737-2.221 10.521-2.221 10.521v-28.87c0 .001 18.27-17.2 20.204-20.148z"/><g fill="#070711"><path d="M131.493 52.558c1.249-2.38 2.49-16.637 2.453-21.269l1.5-31.13 3.974-.017.316 42.167s.103 2.082.045 5.057c-2.84 1.759-5.393 3.734-8.399 5.369.04-.062.085-.128.111-.177z"/><path d="M133.946 31.289s-12.441-10.636-14.829-11.874C116.73 18.177 116.12.24 116.12.24l2.613-.011s.338 13.003 1.782 15.554c1.445 2.551 13.762 8.56 13.762 8.56l-.331 6.946z"/></g><path fill="#0E0E23" d="M151.52 37.247c.606-2.718-2.09-1.607-2.204-16.89C149.289 16.776 149.4.1 149.4.1l2.411-.01s-.062 19.009.169 22.572c.193 2.969.705 7.496 1.833 8.817.345 2.309-.596 4.144-2.293 5.768z"/><path fill="#070711" d="M139.818 48.188s10.369-6.753 11.53-10.322c.074-.229.131-.433.172-.619 1.697-1.624 2.638-3.459 2.293-5.768.225.264.473.412.75.381 1.661-.185 1.729-31.79 1.729-31.79l2.14-.009s-.225 33.263-1.62 37.366c-1.396 4.103-16.625 19.709-18.953 24.49-2.333 4.782 1.959-13.729 1.959-13.729zM99.229 98.41S88.087 87.742 87.468 80.784C86.848 73.826 85.611.92 85.611.92h-5.147s-.503 75.458 0 83.111c.506 7.654 7.07 21.923 15.36 29.918 2.063 1.989 3.248 8.966 3.248 8.966l.157-24.505z"/><path fill="#090916" d="M80.344 22.57s-9.587-8.663-10.516-11.521C68.9 8.191 68.28.92 68.28.92h-1.547s-.929 11.214 0 12.605c.928 1.392 13.73 15.587 13.73 15.587l-.119-6.542z"/><path opacity=".6" fill="#482647" d="M110.215 177.106l-2.873 9.648-1.108 82.149 3.6 19.725zM109.834 300.479v125.388l-3.6-13.62v-131.85zM106.234 179.358l3.6-9.164V91.29zM113.375 85l20.462-20.537c-.256.338-1.29 3.062-1.29 3.062l-19.172 18.93V85zM152.938 41.723c-.155.175-13.757 14.794-13.757 14.794l.618 1.281 13.139-16.075z"/></g><path opacity=".6" fill="#482647" d="M218.589 464.499c1.745-.166 90.412 17.834 90.412 17.834l-58-7.448-42.94-6.385 10.528-4.001zM119.667 443l57.348 13.263L121 449.631l-27-4.298z"/><path opacity=".5" fill="#070711" d="M35.667 437.272L0 454.207v-17.922L19 435zM114.889 437.381l-57.953 12.25L11 452.223l85.395-19.378c2.5-.237 18.494 4.536 18.494 4.536z"/><path fill="#090916" d="M94 454.31L0 487.522v-28.318l38.09-8.202z"/><path fill="#190B1C" d="M720 503.905V468.5l-22.645 17.918-75.729-.496-76.31 3.966-93.651 14.447 268.335-.43z"/><g opacity=".7"><circle fill="#F4DFBB" cx="278.168" cy="60.084" r="19.606"/><circle fill="#E0CEB6" cx="285.296" cy="49.668" r="3.363"/><circle fill="#E0CEB6" cx="290.312" cy="56.137" r="1.664"/><circle fill="#E0CEB6" cx="283.266" cy="59.443" r="2.135"/></g><g opacity=".05"><path fill="#F4DFBB" d="M439.138 452.049c2.5-5.5 5-14 5-20.5 0-13.5-8-19.5-15-30-14.5-22.5-5.248-43.86 9.752-64.36 14.5-20.5 17.367-39.696-10.752-72.64 5.5 4 33.994 10.412 39.314 25.672 6.686 19.177-5.151 28.151-9.151 39.651-4 10-16.327 19.376-15.327 30.376 1.5 14.5 25.164 17.801 27.664 30.301 2.5 14.5-10 26.5-12.5 39.5-2 11.5 6.5 25.5.5 35.5 1.5-6.5 3.5-16.5-3.5-20.5-7-4.5-13.5 3-15 7"/></g><g><path fill="#04040C" d="M155.638 281.478l-.393 2.817c-3.271 23.412-32.261 187.348-32.261 187.348s65.528 2.63 66.186-1.972c.658-4.603-33.532-188.193-33.532-188.193z"/><path fill="#101028" d="M156.085 345.219l-7.89 15.779s7.868 49.604 5.816 35.383c-.162-1.121-.972 34.773-.995 34.189-.023-.584 6.575-1.096 6.575-1.096s-.697-26.994.225-30.776c3.254-13.36 6.352-34.631 6.352-34.631l-10.083-18.848z"/><path fill="#090916" d="M145.274 361.107l5.331 33.081-26.737 22.841 13.369-42.126z"/><path fill="#101028" d="M169.236 367.061l-6.047 31.637 23.671 35.406-10.174-52.408z"/><path fill="#090916" d="M149.686 399.694l.265-.996-20.847 20.97-17.071 52.932 36.162-41.592z"/><path fill="#101028" d="M161.783 400.582l23.232 35.067 12.601 43.086-34.355-48.156z"/><path fill="#090916" d="M154.552 284.873v57.202l-22.793 35.066z"/><path fill="#101028" d="M157.182 284.873l22.353 94.96-22.353-38.197zM161.442 432.346h-3.221c1.457 14.643.807 29.285.445 43.928l30.513-2.858-27.737-41.07z"/><path fill="#090916" d="M158.221 432.346h-3.17L116.97 480.18l41.696-3.906c.362-14.643 1.012-29.286-.445-43.928z"/><path fill="#482647" d="M162.333 317.334L173 361.107l-8.25-21.886zM173 378.215l2.024 5.118 7.309 36.538L173 387.898zM177.015 428.393l6.818 10.966s10.034 29.815 10.034 31.5c.001.833-16.852-42.466-16.852-42.466z"/></g><g><path fill="#04040C" d="M570.016 367.536l.254 1.82c2.112 15.126 20.842 121.038 20.842 121.038s-42.334 1.699-42.76-1.274c-.425-2.973 21.664-121.584 21.664-121.584z"/><path fill="#101028" d="M569.728 408.717l5.096 10.194s-5.082 32.047-3.757 22.859c.104-.724.628 22.466.643 22.089.016-.378-4.247-.708-4.247-.708s.45-17.439-.145-19.884c-2.104-8.631-4.104-22.373-4.104-22.373l6.514-12.177z"/><path fill="#090916" d="M576.711 418.982l-3.444 21.372 17.274 14.757-8.637-27.215z"/><path fill="#101028" d="M561.229 422.828l3.908 20.44-15.292 22.874 6.572-33.858z"/><path fill="#090916" d="M573.861 443.911l-.172-.643 13.469 13.547 11.029 34.198-23.364-26.871z"/><path fill="#15152D" d="M566.046 444.485l-15.009 22.656-8.141 27.836 22.195-31.112z"/><path fill="#090916" d="M570.718 369.73v36.957l14.724 22.654z"/><path fill="#15152D" d="M569.018 369.73l-14.442 61.35 14.442-24.678zM566.266 465.006h2.081c-.941 9.46-.521 18.92-.288 28.38l-19.713-1.847 17.92-26.533z"/><path fill="#090916" d="M568.347 465.006h2.048l24.602 30.904-26.938-2.524c-.234-9.46-.654-18.92.288-28.38z"/><path fill="#482647" d="M565.689 390.702l-6.89 28.28 5.329-14.14zM558.799 430.034l-1.308 3.307-4.722 23.606 6.03-20.656zM556.205 462.452l-4.405 7.085s-6.482 19.263-6.482 20.351c-.001.539 10.887-27.436 10.887-27.436z"/></g><g><path fill="#04040C" d="M57.081 302.258l-.312 2.24c-2.601 18.62-25.657 148.996-25.657 148.996s52.114 2.092 52.637-1.567c.522-3.66-26.668-149.669-26.668-149.669z"/><path fill="#090916" d="M57.436 352.951L51.161 365.5s6.257 39.449 4.625 28.14c-.129-.892-.773 27.655-.792 27.19s5.229-.871 5.229-.871-.555-21.469.179-24.477c2.588-10.625 5.051-27.541 5.051-27.541l-8.017-14.99z"/><path fill="#04040C" d="M48.838 365.587l4.24 26.309-21.264 18.166 10.632-33.503z"/><path fill="#101028" d="M67.895 370.321l-4.81 25.161 18.826 28.158-8.092-41.679z"/><path fill="#04040C" d="M52.347 396.274l.21-.792-16.579 16.677-13.576 42.097 28.759-33.078z"/><path fill="#101028" d="M61.967 396.98l18.476 27.889 10.022 34.267-27.322-38.299z"/><path fill="#04040C" d="M56.216 304.958v45.493L38.09 378.338z"/><path fill="#101028" d="M58.308 304.958l17.777 75.521-17.777-30.377zM61.697 422.242h-2.562c1.158 11.646.642 23.29.354 34.936l24.267-2.273-22.059-32.663z"/><path fill="#04040C" d="M59.135 422.242h-2.521l-30.285 38.042 33.16-3.106c.287-11.646.804-23.29-.354-34.936z"/><path fill="#482647" d="M62.405 330.774l8.483 34.813-6.561-17.406zM70.888 379.192l1.61 4.071 5.813 29.058-7.423-25.427zM74.082 419.099l5.422 8.721s7.98 23.712 7.98 25.052c0 .662-13.402-33.773-13.402-33.773z"/></g><g><path fill="#04040C" d="M652.031 335.309l.312 2.24C654.945 356.169 678 486.545 678 486.545s-52.113 2.092-52.637-1.567c-.522-3.661 26.668-149.669 26.668-149.669z"/><path fill="#101028" d="M651.676 386.002l6.275 12.549s-6.258 39.449-4.626 28.14c.129-.892.772 27.655.792 27.19.018-.465-5.229-.871-5.229-.871s.555-21.469-.179-24.477c-2.588-10.625-5.051-27.541-5.051-27.541l8.018-14.99z"/><path fill="#04040C" d="M660.273 398.638l-4.24 26.308 21.265 18.166-10.632-33.503z"/><path fill="#15152D" d="M641.217 403.372l4.809 25.161-18.825 28.157 8.092-41.678z"/><path fill="#04040C" d="M656.766 429.325l-.211-.792 16.58 16.677 13.575 42.097-28.759-33.078z"/><path fill="#15152D" d="M647.145 430.031l-18.477 27.889-10.022 34.267 27.323-38.299z"/><path fill="#04040C" d="M652.896 338.009v45.493l18.125 27.887z"/><path fill="#15152D" d="M650.804 338.009l-17.778 75.521 17.778-30.378zM647.415 455.293h2.562c-1.158 11.646-.641 23.29-.354 34.936l-24.268-2.273 22.06-32.663z"/><path fill="#04040C" d="M649.977 455.293h2.521l30.285 38.042-33.16-3.106c-.287-11.646-.805-23.291.354-34.936z"/><path fill="#482647" d="M646.707 363.825l-8.483 34.813 6.561-17.407zM638.224 412.243l-1.611 4.07-5.812 29.059 7.423-25.428zM635.03 452.149l-5.423 8.721s-7.98 23.712-7.98 25.052c0 .663 13.403-33.773 13.403-33.773z"/></g><path fill="#080816" d="M432 502.999l-72-7.089-48.537 3.545-113.86-3.545-154.511 7.089z"/><path fill="#E6B700" d="M447.48 478.918s-7.355-2.543-5.355-8.168 8.75-7.625 8.375-11.375 5.875 10.125 5.125 13.875-2.289 5.086-8.145 5.668z"/><path fill="#321935" d="M319 431.5c2-.5 57-.923 57-.923v49.881s-70.278-6.433-72-6.144l15-42.814z"/><path fill="#431F3D" d="M376 430.577v49.881l6.5-5.707-6.5-44.174"/><path opacity=".05" fill="#F4DFBB" d="M451.666 436.29s1.17-19.341-5.248-25.065-20.79-30.491-14.418-50.117c2.5-7.7.694 22.131 19.666 25.786s2.666 38.686 0 49.396z"/><g opacity=".5"><path fill="#070711" d="M368.793 430.877l.924.382-19.934 48.106-.924-.382z"/></g><g opacity=".5"><path fill="#070711" d="M325.995 431.257l.924.382-17.86 43.102-.924-.383z"/></g><path opacity=".4" fill="#070711" d="M376 480.458l-22.889 4.363L304 474.314z"/></svg>